<svg id="Capa_1" enable-background="new 0 0 512 512" height="512" viewBox="0 0 512 512" width="512" xmlns="http://www.w3.org/2000/svg"><g><g><path d="m424.339 7.5h-336.678c-44.272 0-80.161 35.889-80.161 80.161v336.677c0 44.272 35.889 80.161 80.161 80.161h336.677c44.272 0 80.161-35.889 80.161-80.161v-336.677c.001-44.272-35.888-80.161-80.16-80.161z" fill="#ff98a2"/><circle cx="256" cy="256" fill="#fb4455" r="136.274"/><circle cx="256" cy="256" fill="#ffdbde" r="96.194"/><circle cx="408.306" cy="103.694" fill="#fff" r="32.065"/><circle cx="256" cy="256" fill="#fff" r="72.145"/><path d="m427.73 116.334c-17.709 0-32.065-14.356-32.065-32.065 0-3.765.769-7.324 1.961-10.68-12.431 4.415-21.385 16.16-21.385 30.104 0 17.708 14.355 32.065 32.065 32.065 13.944 0 25.688-8.955 30.104-21.384-3.355 1.192-6.914 1.96-10.68 1.96z" fill="#ffdbde"/><path d="m87.661 504.5h336.677c22.412 0 42.653-9.221 57.2-24.048h-393.877c-30.937 0-56.113-25.172-56.113-56.113v-393.878c-14.826 14.547-24.048 34.788-24.048 57.2v336.677c0 44.272 35.89 80.162 80.161 80.162z" fill="#ff7e92"/><path d="m275.297 372.978c-75.263 0-136.274-61.012-136.274-136.274 0-32.716 11.55-62.722 30.766-86.212-30.548 24.99-50.063 62.962-50.063 105.508 0 75.262 61.011 136.274 136.274 136.274 42.547 0 80.519-19.515 105.509-50.064-23.489 19.217-53.496 30.768-86.212 30.768z" fill="#d93f50"/></g><g><path d="m424.339 0h-336.678c-48.336 0-87.661 39.325-87.661 87.661v336.678c0 48.336 39.325 87.661 87.661 87.661h336.678c48.336 0 87.661-39.325 87.661-87.661v-336.678c0-48.336-39.325-87.661-87.661-87.661zm72.661 424.339c0 40.065-32.596 72.661-72.661 72.661h-336.678c-40.065 0-72.661-32.596-72.661-72.661v-336.678c0-40.065 32.596-72.661 72.661-72.661h336.678c40.065 0 72.661 32.596 72.661 72.661z"/><path d="m256 112.226c-79.277 0-143.774 64.497-143.774 143.774s64.497 143.774 143.774 143.774 143.774-64.497 143.774-143.774-64.497-143.774-143.774-143.774zm0 272.548c-71.006 0-128.774-57.768-128.774-128.774s57.768-128.774 128.774-128.774 128.774 57.768 128.774 128.774-57.768 128.774-128.774 128.774z"/><path d="m408.307 64.129c-21.816 0-39.565 17.749-39.565 39.564 0 21.816 17.749 39.565 39.565 39.565s39.564-17.749 39.564-39.565-17.748-39.564-39.564-39.564zm0 64.129c-13.545 0-24.565-11.02-24.565-24.565s11.02-24.564 24.565-24.564 24.564 11.02 24.564 24.564-11.019 24.565-24.564 24.565z"/><path d="m193.284 193.284c30.7-30.7 78.656-34.7 114.028-9.511 3.373 2.402 8.057 1.616 10.46-1.759 2.403-3.374 1.615-8.057-1.759-10.46-19.742-14.058-43.973-20.761-68.224-18.876-24.551 1.908-47.675 12.562-65.112 30-17.437 17.437-28.091 40.561-30 65.111-1.885 24.253 4.819 48.482 18.876 68.224 1.463 2.055 3.771 3.15 6.116 3.15 1.505 0 3.025-.452 4.344-1.391 3.374-2.403 4.162-7.086 1.759-10.46-25.188-35.373-21.188-83.328 9.512-114.028z"/><path d="m329.985 194.228c-3.374 2.403-4.162 7.086-1.759 10.46 25.189 35.372 21.189 83.328-9.511 114.028-30.7 30.699-78.655 34.7-114.028 9.511-3.375-2.402-8.057-1.616-10.46 1.759-2.403 3.374-1.615 8.057 1.759 10.46 17.558 12.503 38.664 19.188 60.182 19.188 2.675 0 5.36-.104 8.042-.312 24.551-1.909 47.675-12.562 65.111-30 17.437-17.437 28.091-40.561 30-65.112 1.885-24.253-4.818-48.482-18.876-68.224-2.403-3.373-7.085-4.161-10.46-1.758z"/></g></g></svg>