<svg height="512" viewBox="0 0 128 128" width="512" xmlns="http://www.w3.org/2000/svg"><path d="m42.4 9.5h47.2a8.035 8.035 0 0 1 8.035 8.035v96.929a8.036 8.036 0 0 1 -8.035 8.036h-47.2a8.036 8.036 0 0 1 -8.036-8.036v-96.928a8.036 8.036 0 0 1 8.036-8.036z" fill="#e6e7e8"/><rect fill="#6dc9f7" height="111" rx="7.035" width="61.275" x="31.362" y="6.5"/><g fill="#0089ef"><path d="m48.417 107.34h-6.834a2.417 2.417 0 0 0 0 4.833h6.834a2.417 2.417 0 0 0 0-4.833z"/><path d="m82.417 107.34h-6.834a2.417 2.417 0 0 0 0 4.833h6.834a2.417 2.417 0 0 0 0-4.833z"/><circle cx="62" cy="109.756" r="4.5"/></g><path d="m31.362 16.929h61.275v84.657h-61.275z" fill="#d4fbff"/><path d="m31.362 98.586h61.275v3h-61.275z" fill="#fff"/><rect fill="#0089ef" height="2.269" rx="1.026" width="19.128" x="52.436" y="10.686"/><path d="m76.1 10.575a1.246 1.246 0 1 0 1.245 1.246 1.245 1.245 0 0 0 -1.245-1.246z" fill="#0089ef"/><circle cx="62.44" cy="60" fill="#fa759e" r="22.94"/><path d="m92.638 30.9a1 1 0 0 0 -1 1v8.08a1 1 0 0 0 2 0v-8.08a1 1 0 0 0 -1-1z" fill="#3a2c60"/><path d="m85.6 5.5h-47.2a8.045 8.045 0 0 0 -8.036 8.036v96.928a8.045 8.045 0 0 0 8.036 8.036h47.2a8.046 8.046 0 0 0 8.036-8.036v-65.646a1 1 0 0 0 -2 0v55.768h-59.274v-82.657h59.276v9.139a1 1 0 0 0 2 0v-13.532a8.046 8.046 0 0 0 -8.038-8.036zm6.036 97.086v7.878a6.043 6.043 0 0 1 -6.036 6.036h-47.2a6.043 6.043 0 0 1 -6.036-6.036v-7.878zm-59.274-86.657v-2.393a6.043 6.043 0 0 1 6.038-6.036h47.2a6.043 6.043 0 0 1 6.036 6.036v2.393z" fill="#3a2c60"/><path d="m38.5 60a23.941 23.941 0 1 0 23.94-23.94 23.967 23.967 0 0 0 -23.94 23.94zm45.881 0a21.941 21.941 0 1 1 -21.941-21.94 21.965 21.965 0 0 1 21.941 21.94z" fill="#3a2c60"/><path d="m48.759 66.672a6.955 6.955 0 0 1 -1.759-5.136v-8.466a1.494 1.494 0 0 1 .4-1.091 1.625 1.625 0 0 1 2.158 0 1.5 1.5 0 0 1 .4 1.091v8.63a4.6 4.6 0 0 0 1.008 3.225 3.827 3.827 0 0 0 2.955 1.091 3.773 3.773 0 0 0 2.933-1.1 4.606 4.606 0 0 0 1.004-3.216v-8.63a1.5 1.5 0 0 1 .4-1.091 1.625 1.625 0 0 1 2.158 0 1.5 1.5 0 0 1 .4 1.091v8.466a6.967 6.967 0 0 1 -1.759 5.125 6.931 6.931 0 0 1 -5.136 1.77 6.99 6.99 0 0 1 -5.162-1.759z" fill="#fff"/><path d="m77.348 66.954a1.338 1.338 0 0 1 -.433.985 1.393 1.393 0 0 1 -1 .422 1.334 1.334 0 0 1 -1.033-.516l-4.76-5.91-4.784 5.91a1.292 1.292 0 0 1 -1.009.493 1.408 1.408 0 0 1 -1-.411 1.3 1.3 0 0 1 -.434-.973 1.373 1.373 0 0 1 .351-.891l5.114-6.239-4.9-5.981a1.259 1.259 0 0 1 -.352-.891 1.308 1.308 0 0 1 .423-.973 1.37 1.37 0 0 1 .984-.41 1.332 1.332 0 0 1 1.032.516l4.574 5.652 4.579-5.652a1.265 1.265 0 0 1 1.009-.516 1.411 1.411 0 0 1 1 .41 1.294 1.294 0 0 1 .434.973 1.254 1.254 0 0 1 -.352.891l-4.9 5.981 5.09 6.239a1.388 1.388 0 0 1 .367.891z" fill="#fff"/></svg>